<?xml version="1.0" standalone="no"?>
<!DOCTYPE svg PUBLIC "-//W3C//DTD SVG 20010904//EN"
 "http://www.w3.org/TR/2001/REC-SVG-20010904/DTD/svg10.dtd">
<svg version="1.0" xmlns="http://www.w3.org/2000/svg"
 width="86.000000pt" height="97.000000pt" viewBox="0 0 86.000000 97.000000"
 preserveAspectRatio="xMidYMid meet">

<g transform="translate(0.000000,97.000000) scale(0.100000,-0.100000)"
fill="#000000" stroke="none">
<path d="M353 878 c-51 -11 -54 -21 -13 -38 17 -7 30 -17 30 -22 0 -6 7 -8 15
-4 8 3 15 1 15 -3 0 -5 -7 -11 -15 -15 -8 -3 -15 -1 -15 3 0 16 -72 53 -83 42
-5 -5 -16 -7 -24 -4 -21 8 -54 -27 -47 -50 5 -15 2 -18 -13 -13 -23 7 -47 -27
-37 -56 5 -17 3 -20 -14 -16 -16 5 -21 -1 -27 -26 -4 -17 -7 -39 -6 -48 1 -10
-3 -18 -8 -18 -14 0 -14 -43 -1 -56 8 -8 6 -15 -4 -23 -12 -10 -12 -19 -4 -44
6 -18 16 -35 21 -38 5 -4 7 -15 3 -24 -6 -18 9 -45 26 -45 5 0 14 13 19 30 8
22 17 30 34 30 21 0 23 5 27 53 5 70 -1 97 -21 97 -20 0 -44 -59 -35 -85 5
-13 3 -16 -7 -13 -36 12 -15 113 36 173 l34 40 40 -22 c29 -15 41 -18 41 -8 0
7 -7 18 -15 25 -8 7 -12 16 -9 21 3 5 -3 9 -13 9 -17 1 -17 1 0 11 9 5 17 16
17 24 0 26 37 37 67 21 16 -8 24 -16 18 -16 -5 0 -23 -12 -40 -25 l-29 -24 23
-22 c15 -14 21 -28 17 -42 -9 -34 11 -58 44 -52 31 5 46 -7 33 -27 -7 -12 -14
-68 -8 -68 1 0 18 7 38 15 35 15 47 31 47 67 0 17 -4 19 -32 13 -33 -7 -33 -7
-15 13 11 11 16 26 12 32 -4 7 2 25 14 41 20 27 21 30 4 36 -27 9 -53 35 -47
45 3 5 -2 15 -11 22 -16 11 -14 14 20 30 20 10 39 15 42 12 4 -3 -8 -11 -25
-17 -34 -12 -33 -34 1 -25 15 3 30 -5 54 -31 34 -38 42 -56 20 -47 -11 4 -42
-54 -33 -63 2 -2 19 4 39 13 35 17 35 17 61 -12 50 -57 75 -180 39 -192 -9 -2
-11 5 -7 25 7 37 -31 109 -42 80 -3 -10 -4 -30 -1 -44 3 -15 -2 -41 -10 -56
-8 -16 -13 -30 -11 -31 2 -1 15 -7 31 -14 16 -7 27 -19 27 -31 0 -11 5 -23 12
-27 15 -10 40 26 34 49 -2 11 4 34 14 52 17 31 18 34 2 40 -15 6 -15 8 -2 18
17 13 26 77 11 77 -6 0 -10 8 -10 18 -2 44 -14 92 -25 92 -7 0 -18 16 -25 35
-7 19 -17 35 -22 35 -5 0 -22 11 -37 25 -15 14 -35 25 -44 25 -10 0 -18 3 -18
8 0 12 -62 40 -100 45 -19 2 -54 0 -77 -5z m72 -98 c3 -6 -1 -7 -9 -4 -18 7
-21 14 -7 14 6 0 13 -4 16 -10z m-5 -39 c0 -5 3 -16 6 -25 4 -11 1 -16 -10
-16 -9 0 -16 -7 -16 -17 0 -9 -3 -14 -6 -10 -9 9 5 77 16 77 6 0 10 -4 10 -9z
m20 -61 c0 -5 -4 -10 -10 -10 -5 0 -10 5 -10 10 0 6 5 10 10 10 6 0 10 -4 10
-10z m-45 -29 c3 -5 1 -12 -5 -16 -5 -3 -10 1 -10 9 0 18 6 21 15 7z m45 -17
c0 -8 -4 -12 -10 -9 -5 3 -10 10 -10 16 0 5 5 9 10 9 6 0 10 -7 10 -16z"/>
<path d="M317 613 c-21 -21 5 -93 33 -93 5 0 15 -2 23 -5 24 -10 17 52 -9 80
-24 26 -36 30 -47 18z"/>
<path d="M255 550 c-20 -38 -16 -94 6 -98 8 -1 29 2 45 9 l29 11 -23 11 c-20
9 -23 16 -18 42 4 22 2 36 -8 44 -12 10 -18 7 -31 -19z"/>
<path d="M526 554 c-15 -10 -16 -16 -5 -35 7 -15 8 -24 2 -26 -6 -2 -18 -10
-28 -17 -17 -12 -15 -14 19 -26 47 -15 62 -9 71 29 5 25 1 37 -17 60 -21 24
-27 27 -42 15z"/>
<path d="M45 530 c3 -5 8 -10 11 -10 2 0 4 5 4 10 0 6 -5 10 -11 10 -5 0 -7
-4 -4 -10z"/>
<path d="M50 489 c0 -5 5 -7 10 -4 6 3 10 8 10 11 0 2 -4 4 -10 4 -5 0 -10 -5
-10 -11z"/>
<path d="M335 406 c-22 -11 -42 -22 -44 -23 -15 -9 14 -13 53 -8 40 6 46 10
46 31 0 28 -3 28 -55 0z"/>
<path d="M417 401 c3 -10 17 -21 31 -24 15 -3 35 -9 45 -12 33 -13 17 11 -22
33 -48 27 -61 28 -54 3z"/>
<path d="M166 361 c-7 -11 28 -51 44 -51 6 0 10 -7 10 -15 0 -22 38 -39 56
-24 11 9 14 8 14 -4 0 -25 38 -41 57 -26 12 11 17 10 24 -1 26 -44 26 -44 50
-21 25 23 39 27 39 11 0 -14 37 -12 47 3 4 6 15 12 23 13 8 1 26 5 40 9 23 7
24 7 10 -11 -14 -17 -14 -18 1 -6 10 7 15 20 12 30 -3 11 6 23 26 35 32 19 42
47 16 47 -8 0 -26 -18 -40 -40 -24 -38 -53 -56 -41 -25 3 9 0 15 -10 15 -11 0
-15 6 -11 19 4 16 0 19 -27 18 -17 -1 -51 2 -75 6 -27 4 -60 2 -84 -5 -32 -10
-41 -10 -45 0 -2 7 -11 12 -19 12 -11 0 -14 -7 -9 -24 4 -15 0 -28 -9 -36 -12
-10 -17 -7 -26 14 -10 20 -10 29 -1 38 20 20 13 30 -10 14 -20 -14 -24 -14
-39 0 -11 10 -19 12 -23 5z"/>
<path d="M280 230 c0 -5 5 -10 11 -10 5 0 7 5 4 10 -3 6 -8 10 -11 10 -2 0 -4
-4 -4 -10z"/>
</g>
</svg>
